<svg width="113" height="19" viewBox="0 0 113 19" fill="none" xmlns="http://www.w3.org/2000/svg">
<path d="M14.2258 0.358887H0V4.28059H14.2258V0.358887ZM14.2258 7.30516H0V11.0987H14.2258V7.30516ZM0 14.3796V18.3013H14.2258V14.3796H0Z" fill="white"/>
<path d="M36.2519 4.58817C35.4061 3.2553 34.227 2.20439 32.7147 1.46106C31.1768 0.743367 29.4338 0.358887 27.4858 0.358887H19.0016V4.40875H27.2807C28.8186 4.40875 30.049 4.84449 30.9717 5.71598C31.8945 6.6131 32.3815 7.8178 32.3815 9.33009C32.3815 10.868 31.8945 12.0727 30.9717 12.9442C30.049 13.8157 28.8186 14.2514 27.2807 14.2514H24.0767V9.48388H19.0016V18.3013H27.4858C29.4338 18.3013 31.1768 17.9424 32.7147 17.1991C34.227 16.4814 35.4061 15.4305 36.2519 14.072C37.0721 12.7391 37.5079 11.15 37.5079 9.33009C37.5079 7.53585 37.0721 5.94667 36.2519 4.58817Z" fill="white"/>
<path d="M44.0084 16.4814C45.495 17.9424 47.5712 18.6601 50.2369 18.6601C52.9027 18.6601 54.9532 17.9424 56.4399 16.4814C57.9265 15.046 58.6699 12.9698 58.6699 10.3041V0.358887H53.6716V10.1503C53.6716 13.0211 52.5438 14.4565 50.2882 14.4565C48.007 14.4565 46.8792 13.0211 46.8792 10.1503V0.358887H41.804V10.3041C41.804 12.9698 42.5217 15.046 44.0084 16.4814Z" fill="white"/>
<path d="M63.863 0.358887V18.3013H68.9382V0.358887H63.863Z" fill="white"/>
<path d="M78.2246 17.481C79.7112 18.2756 81.403 18.6601 83.2997 18.6601C84.9402 18.6601 86.4012 18.3781 87.7341 17.7886C89.0413 17.2247 90.1435 16.3789 91.015 15.2767L87.7853 12.3546C86.6063 13.7644 85.1965 14.4565 83.556 14.4565C82.582 14.4565 81.7105 14.2514 80.9416 13.8157C80.1726 13.4055 79.5831 12.7904 79.173 12.0214C78.7629 11.2525 78.5578 10.3553 78.5578 9.33005C78.5578 8.3304 78.7629 7.43328 79.173 6.66432C79.5831 5.89536 80.1726 5.28019 80.9416 4.84445C81.7105 4.43434 82.582 4.20365 83.556 4.20365C85.1965 4.20365 86.6063 4.92135 87.7853 6.30547L91.015 3.38343C90.1435 2.30688 89.0413 1.46103 87.7341 0.871489C86.4012 0.307585 84.9402 0 83.2997 0C81.403 0 79.7112 0.410113 78.2246 1.20471C76.7379 1.9993 75.5588 3.10147 74.713 4.51123C73.8415 5.94663 73.4314 7.53581 73.4314 9.33005C73.4314 11.1243 73.8415 12.7391 74.713 14.1489C75.5588 15.5843 76.7379 16.6864 78.2246 17.481Z" fill="white"/>
<path d="M100.081 0.358887H95.0576V7.99723L100.081 2.53761V0.358887ZM105.285 8.30481L112.616 0.358887H107.028L100.081 7.8178L95.0576 13.2262V18.3013H100.081V13.8157L101.978 11.7908L107.105 18.3013H113L105.285 8.30481Z" fill="white"/>
<rect y="0.426331" width="4.26347" height="17.9066" fill="white"/>
</svg>
